<svg width="424" height="558" viewBox="0 0 424 558" fill="none" xmlns="http://www.w3.org/2000/svg">
<path d="M374.235 114.997C317.434 105.896 246.697 129.376 193.72 151.951C193.116 104.589 185.821 58.6845 166.149 25.8023C148.44 -1.64976 122.177 -6.97928 95.1603 11.121C80.6373 22.0337 67.892 35.1271 57.3768 49.9361C40.7475 36.0303 22.0833 24.7542 2.03471 16.5008C-37.6607 1.76919 -66.5392 18.7633 -73.4318 60.1929C-82.7393 118.516 -57.7348 191.571 -34.5917 244.916C-31.8246 251.201 -28.8059 257.687 -25.6363 264.324C-28.4538 278.553 -31.1705 294.491 -33.4849 310.932C-48.1148 327.611 -60.5426 346.097 -70.4635 365.937C-88.676 405.456 -79.3182 438.791 -37.8116 449.148C-34.2898 480.421 -26.7935 509.482 -13.3605 532.057C4.24839 559.61 30.5611 564.94 57.6284 547.141C82.7839 529.192 103.864 500.281 121.322 467.098C138.345 482.107 157.254 494.834 177.57 504.957C219.428 524.264 254.344 512.65 262.444 464.734C265.468 441.019 264.584 416.969 259.828 393.54C266.305 386.513 271.422 378.347 274.921 369.457C278.883 359.9 280.835 349.632 280.657 339.289C337.408 299.469 396.674 246.023 418.056 190.565C432.797 150.896 415.843 122.036 374.336 115.147M-39.2707 435.875C-78.8151 420.489 -63.5206 382.68 -38.1135 349.446C-40.7851 378.179 -41.172 407.08 -39.2707 435.875ZM190.349 222.191C207.61 253.433 222.153 286.101 233.817 319.832C226.334 327.253 220.49 336.16 216.661 345.976C212.215 356.534 210.303 367.984 211.077 379.412C190.095 390.884 168.496 401.19 146.377 410.283C159.771 374.452 170.5 337.683 178.475 300.273C183.054 277.648 187.431 250.698 190.349 222.191ZM73.6775 45.0591C155.131 -41.571 171.18 77.9412 169.973 142.549C169.973 149.387 169.621 156.225 169.319 163.063L160.112 167.588C134 128.622 100.896 87.1423 64.521 55.9193C67.439 52.2322 70.4577 48.6121 73.5769 45.0591M59.842 61.9527C97.0721 90.6115 130.277 130.08 157.294 168.795C102.921 195.925 52.2057 229.832 6.36145 269.704C0.223511 257.989 -5.71321 246.123 -11.348 234.207L-14.6686 226.917C0.424706 168.342 23.2156 110.069 59.5905 61.9527M-50.3391 126.661C-61.7093 77.6396 -66.7404 2.62394 6.51237 30.5788C22.7808 37.4637 38.1814 46.2391 52.396 56.7237C19.8448 103.986 -2.64423 168.744 -16.5301 222.643C-30.7084 191.748 -42.0254 159.62 -50.3391 126.661ZM-24.0264 268.497C-20.6724 275.201 -17.2009 282.022 -13.612 288.96C-19.381 294.726 -24.8817 300.592 -30.114 306.558C-28.4035 293.737 -26.3407 281.067 -24.0264 268.497ZM-34.0886 343.915C-24.2409 331.828 -13.584 320.422 -2.19141 309.776C22.1902 353.242 51.2402 393.923 84.4441 431.098C48.8742 440.5 13.0528 444.975 -19.5488 440.852C-23.6664 440.213 -27.7472 439.358 -31.7743 438.288C-35.8683 406.999 -36.6441 375.366 -34.0886 343.915ZM91.0851 475.393C78.2558 498.924 50.8364 544.175 21.1529 541.962C-0.682076 538.393 -12.8574 511.292 -19.75 492.187C-24.0018 478.593 -27.363 464.737 -29.8122 450.707C5.75771 455.735 47.5158 448.796 88.8212 435.623C93.5504 440.651 98.3803 445.679 103.21 450.305C99.4368 458.701 95.3616 466.997 91.0851 475.192M115.184 421.595L110.153 423.305C75.1399 382.667 44.4213 338.522 18.4863 291.575C64.3079 253.446 114.22 220.513 167.306 193.381C161.827 252.908 150.417 311.741 133.246 369.004C127.913 386.702 122.026 404.199 115.335 421.595M252.483 453.17C239.855 534.571 171.532 485.751 131.284 446.031C135.963 435.975 140.34 425.417 144.465 414.908C168.564 404.551 191.405 393.138 211.379 382.076C213.089 393.188 218.221 401.735 226.472 405.054C234.723 408.372 243.779 405.909 252.432 399.523C254.545 417.343 254.545 435.35 252.432 453.17M403.768 194.94C381.832 248.235 331.672 297.106 280.154 334.865C278.896 322.647 273.613 313.094 265.061 309.726C256.508 306.357 246.747 309.173 237.691 316.362C224.622 282.179 208.981 249.035 190.902 217.213C192.059 205.146 192.915 192.878 193.418 180.51L200.059 177.342C234.609 160.772 270.727 147.685 307.875 138.276C356.928 126.913 431.942 121.885 403.969 195.09" fill="black"/>
</svg>
