<?xml version="1.0" encoding="utf-8"?>
<!-- Generator: Adobe Illustrator 27.2.0, SVG Export Plug-In . SVG Version: 6.00 Build 0)  -->
<svg version="1.1" id="_x35_" xmlns="http://www.w3.org/2000/svg" xmlns:xlink="http://www.w3.org/1999/xlink" x="0px" y="0px"
	 viewBox="0 0 274.53 257.49" style="enable-background:new 0 0 274.53 257.49;" xml:space="preserve">
<style type="text/css">
	.st0{fill-rule:evenodd;clip-rule:evenodd;fill:#FFFFFF;stroke:#1D1D1B;stroke-width:0.75;stroke-miterlimit:10;}
	.st1{fill-rule:evenodd;clip-rule:evenodd;fill:#1D1D1B;}
	.st2{fill:#1D1D1B;}
	.st3{fill-rule:evenodd;clip-rule:evenodd;fill:#ED7D98;}
	.st4{fill:#115AFD;}
	.st5{fill:#FFFFFF;stroke:#1D1D1B;stroke-width:0.75;stroke-miterlimit:10;}
	.st6{fill:#FFFFFF;}
	.st7{fill:#AFAFAF;}
	.st8{fill:none;stroke:#000000;stroke-width:1.5;stroke-linejoin:round;stroke-miterlimit:10;}
	.st9{fill:#ECECEC;}
	.st10{fill:#FFFFFF;stroke:#000000;stroke-width:1.5;stroke-miterlimit:10;}
	.st11{fill:#AAB9F2;}
	.st12{fill:#9480C1;}
	.st13{fill:none;stroke:#25233F;stroke-linecap:round;stroke-linejoin:round;stroke-miterlimit:10;}
	.st14{opacity:0.2;fill:#FFFFFF;}
	.st15{opacity:0.4;}
	.st16{fill:#70788F;}
	.st17{clip-path:url(#SVGID_00000145740281662521539060000009972426126608069546_);}
	.st18{fill-rule:evenodd;clip-rule:evenodd;fill:#FF275A;}
	.st19{fill-rule:evenodd;clip-rule:evenodd;fill:#FFFFFF;}
</style>
<g>
	<g>
		<g transform="matrix(0.992971,0.118362,-0.118362,0.992971,13.5625,-10.5484)">
			<g transform="matrix(0.968627,0.248521,-0.248521,0.968627,50.0782,-16.4724)">
				<path class="st0" d="M82.36,96.1c0,0-3.04-15.41-30.38-33.6C35.69,51.66,6.65,45.2-6.46,63.46
					c-9.81,13.68,23.04,24.44,43.8,31.69c16.98,5.93,25.34,9.94,31.04,15.11L82.36,96.1z"/>
			</g>
			<g transform="matrix(0.968627,0.248521,-0.248521,0.968627,50.0782,-16.4724)">
				<g>
					<path class="st1" d="M68.52,110.63c-0.12,0.04-0.25,0.02-0.35-0.08c-3-2.68-6.61-4.93-11.7-7.32
						c-4.67-2.19-10.8-4.55-19.29-7.44l-2.22-0.76c-12.3-4.19-27.62-9.4-36.51-15.67c-4.99-3.52-7.64-7.3-7.67-10.95
						c-0.02-1.89,0.64-3.78,1.96-5.63c3.14-4.4,7.33-7.63,12.44-9.61C8.22,52,11.6,51.27,15.21,51c5.93-0.44,12.61,0.39,19.31,2.4
						c6.33,1.9,12.68,4.88,17.85,8.38c8.57,5.83,15.6,11.94,20.89,18.15c8.11,9.52,9.37,16.05,9.38,16.12
						c0.03,0.16-0.04,0.3-0.16,0.35c-0.2,0.04-0.36-0.09-0.4-0.26c-0.06-0.27-1.47-6.42-9.54-15.48
						c-5.38-6.04-12.43-11.91-20.95-17.45c-5.08-3.33-11.13-6.05-17.48-7.87c-6.49-1.86-12.93-2.61-18.65-2.17
						c-3.47,0.27-6.69,0.97-9.58,2.09c-4.75,1.84-8.63,4.82-11.54,8.86c-1.29,1.77-1.79,3.59-1.5,5.4c0.43,2.67,2.58,5.37,6.57,8.25
						C8.11,84.06,23.02,89.37,35,93.63l2.49,0.89c8.51,3.05,14.64,5.53,19.3,7.8c5.06,2.47,8.8,4.9,11.79,7.66
						c0.16,0.15,0.19,0.41,0.06,0.57C68.61,110.58,68.57,110.61,68.52,110.63z"/>
					<path class="st2" d="M5.36,53.65c3-1.16,6.32-1.88,9.88-2.15c5.87-0.43,12.49,0.39,19.13,2.38c6.29,1.88,12.58,4.84,17.72,8.32
						c8.53,5.81,15.53,11.89,20.79,18.06c0.26,0.3,0.51,0.6,0.75,0.89c-0.23-0.27-0.47-0.54-0.72-0.82
						C67.5,74.26,60.42,68.36,51.86,62.8c-5.13-3.35-11.22-6.1-17.61-7.93c-6.54-1.87-13.05-2.63-18.82-2.19
						c-3.52,0.27-6.79,0.98-9.72,2.12c-4.84,1.88-8.8,4.92-11.76,9.03c-1.37,1.89-1.9,3.83-1.59,5.78c0.45,2.81,2.66,5.61,6.77,8.58
						c8.75,6.32,23.7,11.63,35.71,15.91l2.49,0.89c7.61,2.72,13.31,4.99,17.74,7.06c-4.47-1.99-10.16-4.15-17.73-6.72l-2.22-0.76
						c-12.27-4.18-27.55-9.38-36.37-15.6c-4.85-3.42-7.43-7.07-7.46-10.54c-0.01-1.78,0.61-3.58,1.86-5.34
						C-3.77,58.77,0.34,55.59,5.36,53.65 M5,52.71C0.07,54.63-4.3,57.8-7.67,62.5c-1.44,2.03-2.06,4.01-2.05,5.93
						c0.03,4.02,2.99,7.89,7.89,11.35c9.5,6.69,26.34,12.21,38.85,16.49c8.21,2.79,14.39,5.15,19.24,7.42
						c5.08,2.38,8.67,4.65,11.57,7.23c0.25,0.23,0.59,0.28,0.87,0.17c0.12-0.05,0.24-0.13,0.33-0.24c0.3-0.36,0.25-0.92-0.11-1.25
						c-2.97-2.74-6.67-5.18-11.91-7.74c-4.87-2.38-11.09-4.86-19.35-7.82C25.44,89.68,8.96,84.06-0.3,77.38
						c-5.47-3.95-8.41-8.2-4.95-12.96c3.01-4.19,6.92-6.98,11.32-8.69c2.96-1.15,6.15-1.8,9.43-2.05
						c6.03-0.46,12.41,0.41,18.47,2.15c6.4,1.84,12.45,4.61,17.34,7.81C61,69.93,67.63,75.91,72.17,81
						c8.08,9.06,9.43,15.24,9.43,15.24c0.09,0.45,0.5,0.74,0.93,0.67c0.05-0.01,0.09-0.02,0.14-0.04c0.34-0.13,0.55-0.51,0.47-0.91
						c0,0-1.18-6.6-9.49-16.35c-4.53-5.32-11.2-11.58-20.99-18.24c-5.06-3.42-11.33-6.45-17.99-8.45
						c-6.39-1.91-13.13-2.89-19.49-2.42C11.62,50.77,8.19,51.48,5,52.71L5,52.71z"/>
				</g>
			</g>
			<g transform="matrix(0.968627,0.248521,-0.248521,0.968627,50.0782,-16.4724)">
				<g>
					<path class="st3" d="M72.83,97.82c0,0-17.46-10.25-32.25-12.31C20.24,82.68,7,74.99,9.28,67.44
						c2.55-8.44,25.35-4.41,38.73,3.64C61.38,79.13,72.83,97.82,72.83,97.82z"/>
				</g>
			</g>
		</g>
		<g transform="matrix(0.992971,0.118362,-0.118362,0.992971,13.5625,-10.5484)">
			<g transform="matrix(0.968627,0.248521,-0.248521,0.968627,50.0782,-16.4724)">
				<path class="st0" d="M128.95,74.97c0,0-12.71-10.31-15.8-44.01c-1.84-20.08,6.77-49.55,30.23-52.45
					c17.57-2.17,11.02,32.87,7.3,55.22c-3.05,18.29-3.54,27.82-1.62,35.52L128.95,74.97z"/>
			</g>
			<g transform="matrix(0.968627,0.248521,-0.248521,0.968627,50.0782,-16.4724)">
				<g>
					<path class="st2" d="M149.38,68.36c-0.23,0.04-0.47-0.11-0.52-0.34c-1.05-4.07-1.42-8.66-1.16-14.44
						c0.24-5.33,1.03-12.1,2.48-21.3l0.43-2.69c2.08-12.94,4.67-29.05,3.23-40.01c-1.09-8.32-4.38-12.01-10.05-11.28
						c-2.22,0.28-4.37,0.81-6.4,1.6c-5.61,2.18-10.42,6.26-14.3,12.13c-3.27,4.96-5.82,11.16-7.36,17.95
						c-1.51,6.64-2.02,13.45-1.5,19.69c0.84,10.43,2.73,19.7,5.61,27.54c0.88,2.39,1.85,4.64,2.9,6.72c-0.24,0-0.47,0.01-0.67,0.05
						c-0.05,0-0.2-0.02-0.37,0c-1.05-2-2.04-4.17-2.95-6.47c-3.09-7.85-5.2-17.21-6.29-27.83c-0.64-6.41-0.21-13.61,1.22-20.28
						c1.51-7.06,4.1-13.52,7.48-18.67c4.05-6.17,9.16-10.49,15.17-12.82c2.22-0.86,4.59-1.45,7.03-1.75c2.37-0.28,4.46,0.05,6.21,1
						c3.36,1.82,5.52,6.08,6.27,12.34c1.33,11.12-1.54,27.54-3.85,40.74l-0.42,2.38c-1.59,9.1-2.48,15.82-2.81,21.12
						c-0.35,5.78-0.08,10.15,0.89,14.18c0.05,0.19-0.04,0.36-0.21,0.43C149.45,68.34,149.4,68.36,149.38,68.36z"/>
					<path class="st2" d="M136.51-21.63c2.19-0.85,4.51-1.43,6.91-1.72c2.27-0.27,4.26,0.05,5.91,0.94
						c3.21,1.74,5.29,5.87,6.01,11.95c1.32,11.05-1.54,27.43-3.84,40.6l-0.42,2.38c-1.6,9.13-2.49,15.85-2.82,21.18
						c-0.08,1.31-0.13,2.56-0.14,3.74c-0.01-1.22,0.02-2.5,0.08-3.85c0.24-5.31,1.02-12.06,2.48-21.25l0.43-2.69
						c2.08-12.97,4.68-29.12,3.23-40.15c-0.42-3.18-1.69-12.86-10.6-11.71c-2.26,0.28-4.45,0.83-6.52,1.63
						c-5.71,2.21-10.6,6.36-14.54,12.32c-3.31,5.01-5.87,11.27-7.43,18.11c-1.52,6.69-2.04,13.55-1.51,19.84
						c0.85,10.48,2.74,19.79,5.64,27.67c0.6,1.64,1.25,3.21,1.93,4.71c-0.74-1.51-1.43-3.11-2.09-4.77
						c-3.07-7.8-5.17-17.12-6.26-27.7c-0.64-6.36-0.21-13.51,1.21-20.13c1.5-7,4.06-13.4,7.41-18.5
						C125.57-15.09,130.59-19.34,136.51-21.63 M136.14-22.56c-6.46,2.51-11.57,7.17-15.41,13.01c-3.63,5.53-6.11,12.12-7.55,18.84
						c-1.5,7.02-1.85,14.18-1.23,20.44c1.24,12.13,3.68,21.25,6.32,27.96c1.04,2.65,2.12,4.93,3.16,6.87
						c0.02-0.01,0.04-0.02,0.06-0.03c0.08-0.03,0.15-0.05,0.24-0.07c0.11-0.02,0.23,0,0.34,0.01c0.02-0.01,0.05-0.01,0.07-0.02
						c0.23-0.04,0.48-0.05,0.72-0.04c0.25,0.01,0.49,0.06,0.74,0.13c0.01,0,0.01,0,0.02,0.01c-1.09-2.07-2.23-4.56-3.32-7.53
						c-2.43-6.61-4.62-15.55-5.58-27.41c-0.5-6-0.03-12.84,1.49-19.54c1.44-6.35,3.83-12.55,7.29-17.78
						c3.52-5.33,8.16-9.65,14.07-11.94c1.95-0.76,4.04-1.29,6.28-1.57c6.13-0.79,8.58,3.95,9.49,10.85
						c1.53,11.66-1.55,29.34-3.66,42.55c-1.41,8.93-2.24,15.78-2.49,21.36c-0.27,6.01,0.13,10.55,1.17,14.59
						c0.12,0.49,0.61,0.8,1.1,0.71c0.05-0.01,0.1-0.02,0.15-0.04c0.4-0.15,0.62-0.58,0.51-1.01c-0.94-3.9-1.23-8.26-0.88-14.03
						c0.34-5.5,1.26-12.26,2.8-21.07c2.33-13.42,5.68-31.39,4.27-43.27c-0.73-6.14-2.83-10.71-6.53-12.72
						c-1.76-0.95-3.91-1.36-6.51-1.06C140.75-24.03,138.37-23.42,136.14-22.56L136.14-22.56z"/>
				</g>
			</g>
			<g transform="matrix(0.968627,0.248521,-0.248521,0.968627,50.0782,-16.4724)">
				<g>
					<path class="st3" d="M135.53,65.89c0,0-0.71-20.84,4.81-35.25c7.59-19.81,7.13-35.57-0.99-37.21
						c-9.08-1.84-16.81,20.78-16.08,36.85C124,46.35,135.53,65.89,135.53,65.89z"/>
				</g>
			</g>
		</g>
		<g>
			<g>
				<path class="st4" d="M56.39,224.92c0,0,0.27-14.4,1.87-12.8c1.6,1.6,5.33,9.33,5.33,9.33s9.33-1.6,8.53,0
					c-0.8,1.6-6.4,6.13-6.4,6.13s0.8,12-1.6,10.66c-2.4-1.33-4.53-7.47-4.53-7.47s-9.33,0-9.06-1.33
					C50.79,228.12,56.39,224.92,56.39,224.92z"/>
				<path class="st4" d="M223.34,231.88c0,0,0.18,5.82-1.17,4.78c-1.35-1.04-2.57-3.73-2.57-3.73s-6.63,0.01-5.76-0.96
					c0.87-0.97,4.82-3.22,4.82-3.22s0.09-5.18,1.21-5.06c1.12,0.12,3,4.28,3,4.28s4.36-1.53,4.25-0.04
					C227.02,229.41,223.34,231.88,223.34,231.88z"/>
				<path class="st4" d="M56.86,176.98c0,0-0.19-7.05,1.14-5.91c1.33,1.14,2.67,5.53,2.67,5.53s5.91,0.19,4.96,1.14
					c-0.95,0.95-5.15,3.05-5.15,3.05s-0.38,5.34-1.53,5.15c-1.14-0.19-2.86-4.58-2.86-4.58s-4.92,0.24-4.73-1.28
					C51.56,178.56,56.86,176.98,56.86,176.98z"/>
			</g>
			<g>
				<g>
					<path class="st5" d="M178.17,221.37c0,0,30.63,7.19,38.77-2.12c8.14-9.31,2.85-25.69,2.85-25.69l-15.54,2.85
						c0,0-3.09,4.97-9.68,6.52c-6.59,1.55-25-14.9-25-14.9L178.17,221.37z"/>
					<path class="st5" d="M118.64,235.8c0,0-30.63,7.19-38.77-2.12c-8.14-9.31-2.85-25.69-2.85-25.69l15.54,2.85
						c0,0,3.09,4.97,9.68,6.52c6.59,1.55,25-14.9,25-14.9L118.64,235.8z"/>
					<g>
						<path class="st6" d="M111.53,242.29c0,0,1.73-45.46,10.36-46.03c8.63-0.58,53.51,2.3,53.51,2.3l10.36,43.73H111.53z"/>
						<path class="st7" d="M114.95,210.45c6.14,3.3,13.96,5.94,22.39,4.95c23.17-2.71,33.69-9.86,38.43-15.27l-0.37-1.57
							c0,0-16.46-1.05-31.36-1.76l-25.56,2.41C117.03,201.79,115.87,205.84,114.95,210.45z"/>
						<path class="st8" d="M114.26,220.8c0,0-4.55,10.68-2.94,21.16"/>
					</g>
					<path class="st8" d="M176.28,208.45c0,0,9.54,26.53,9.47,33.84"/>
				</g>
				<g>
					<g>
						<g>
							<path class="st6" d="M138.02,82.36l-20.92,5.33c-61.4,21.47-44.54,75.39-44.54,75.39c-16.02,39.58,42.63,51.54,71.93,43.74
								l22.76-6.06c29.29-7.8,61.12-29.83,38.73-68.26C205.97,132.5,197.52,65.77,138.02,82.36z"/>
						</g>
						<path class="st8" d="M153.85,203.78c0,0,50.53-8.08,57.62-36.75"/>
						<g>
							<path class="st8" d="M120.97,165.87"/>
							<path class="st8" d="M83.32,156.88"/>
						</g>
						<g>
							<path class="st9" d="M192.3,138.51"/>
							<path class="st9" d="M159.3,160.86"/>
						</g>
						<path class="st8" d="M91.41,102.35c0,0-20.51,11.3-21.41,43.51"/>
						<path class="st8" d="M167.01,80.63c0,0,35.1,11.61,38.96,51.87"/>
					</g>
				</g>
				<g>
					<g>
						<path class="st10" d="M189.02,183.74c7.42-4.59,9.74-0.12,9.74-0.12s-6.73-11.81-4.07-14.73c4.46-4.93,14.6,10.09,14.6,10.09
							s-6.39-12.49-2.07-13.1c5.3-0.74,9.44,12.09,9.44,12.09s-3.31-12.56,2.34-10.09c5.65,2.47,16.33,29.51-0.57,39.75
							c-14.75,8.94-30.68,0.22-26.58-7.16c2.95-5.31,8.16,5.01,10.29,0.49c3-6.37-5.12-12.36-6.24-7.99
							c-1.99,7.74-6.05,7.7-7.12,6.47C186.99,197.4,181.61,188.34,189.02,183.74z"/>
					</g>
					<g>
						<path class="st10" d="M113.4,202.98c-7.42-4.59-9.74-0.12-9.74-0.12s6.73-11.81,4.07-14.73c-4.46-4.93-14.6,10.09-14.6,10.09
							s6.39-12.49,2.07-13.1c-5.3-0.74-9.44,12.09-9.44,12.09s3.31-12.56-2.34-10.09c-5.65,2.47-16.33,29.51,0.57,39.75
							c14.75,8.94,30.68,0.22,26.58-7.16c-2.95-5.31-8.16,5.01-10.29,0.49c-3-6.37,5.12-12.36,6.24-7.99
							c1.99,7.74,6.05,7.7,7.12,6.47C115.44,216.63,120.82,207.57,113.4,202.98z"/>
						<path class="st8" d="M74.97,204.88"/>
						<path class="st8" d="M84,226.87"/>
					</g>
				</g>
			</g>
		</g>
	</g>
</g>
<g>
	<g>
		<g>
			<g>
				<path class="st2" d="M114.78,164.69c-0.84,0-1.74-0.06-2.66-0.19l-0.08-0.01l-0.02,0c-4.37-0.58-8.98-2.44-12.05-4.87
					c-5.71-4.59-6.69-12.83-7.4-18.84c-0.21-1.71-0.62-3.45-2.17-3.45c-0.46,0-0.95,0.15-1.46,0.32c-0.55,0.18-1.12,0.36-1.73,0.38
					c-0.6-1.04-0.82-2.45-1.23-5.06c-0.09-0.6-0.19-1.25-0.31-1.98c-0.06-0.39-0.01-0.68,0.14-0.87c0.42-0.5,1.69-0.52,2.81-0.53
					l0.78-0.01c0.28,0,0.74-0.05,1.63-0.18c1.26-0.17,3.02-0.44,4.98-0.78l6.33-1.06c1.25-0.23,2.54-0.45,3.91-0.69l13.55-2.35
					c10.16-1.75,20.95-3.59,31.32-5.27c0.4-0.07,0.79-0.13,1.18-0.19c0.39-0.06,0.79-0.13,1.18-0.2l5.63-0.89
					c2.18-0.34,4.33-0.67,6.43-0.99c1.48-0.22,2.93-0.43,4.34-0.63c5.56-0.79,10.02-1.37,13.62-1.78c4.35-0.47,7.67-0.71,9.88-0.71
					c2.61,0,3,0.34,3.04,0.38c0.05,0.77,0.34,1.8,0.65,2.89c0.44,1.53,0.98,3.44,0.55,4.01c-0.03,0.05-0.13,0.17-0.47,0.17
					c-0.08,0-0.16-0.01-0.25-0.02c-0.54-0.07-0.99-0.1-1.39-0.1c-1.06,0-1.73,0.24-2.13,0.76c-0.67,0.87-0.3,2.24,0.21,4.13
					c0.2,0.76,0.43,1.62,0.63,2.55c0.66,3.03,0.62,5.83-0.12,8.54c-0.45,1.85-1.1,3.61-1.96,5.27c-0.85,1.64-1.9,3.11-3.1,4.36
					c-1.52,1.61-3.26,2.83-5.18,3.62c-1.7,0.72-3.51,1.08-5.39,1.08c-0.59,0-1.2-0.04-1.81-0.11c-1.42-0.18-2.86-0.55-4.28-1.1
					c-1.3-0.49-2.65-1.17-4.01-2.02c-9.96-6.27-12.4-14.97-13.7-19.65c-0.51-1.83-0.82-2.93-1.39-3.41
					c-0.5-0.43-0.94-0.65-1.94-0.65c-1.33,0-3.72,0.36-9.5,1.22c-2.69,0.4-6.11,0.91-10.45,1.54l-0.48,0.07l0.05,0.48
					c0,0.03,0.03,0.14,0.07,0.34c1.23,5.43,1.51,9.95,1.53,12.79c0.05,5.33-0.76,9.88-2.42,13.51c-0.76,1.72-1.74,3.26-2.92,4.58
					c-1.42,1.62-3.11,2.92-5.02,3.86c-0.87,0.44-1.83,0.82-2.86,1.15c-1.12,0.34-2.36,0.53-3.67,0.58
					C115.34,164.69,115.06,164.69,114.78,164.69z"/>
				<path class="st2" d="M193.37,114.36c1.57,0,2.27,0.12,2.55,0.2c0.12,0.81,0.38,1.73,0.66,2.69c0.3,1.07,0.86,3.02,0.65,3.54
					c-0.02,0-0.05,0.01-0.09,0.01c-0.06,0-0.12,0-0.19-0.01c-0.56-0.07-1.03-0.11-1.46-0.11c-1.21,0-2.03,0.31-2.52,0.95
					c-0.82,1.07-0.42,2.53,0.12,4.56c0.2,0.75,0.43,1.6,0.62,2.53c0.64,2.95,0.61,5.66-0.13,8.33c-0.43,1.79-1.08,3.52-1.91,5.14
					c-0.83,1.6-1.85,3.03-3.03,4.25c-1.47,1.56-3.15,2.73-5.01,3.5c-1.64,0.69-3.38,1.04-5.19,1.04c-0.57,0-1.16-0.04-1.75-0.11
					c-1.38-0.17-2.78-0.53-4.17-1.08c-1.26-0.47-2.58-1.14-3.91-1.98c-9.8-6.17-12.2-14.75-13.49-19.36
					c-0.54-1.92-0.86-3.08-1.54-3.66c-0.58-0.5-1.12-0.77-2.27-0.77c-1.36,0-3.77,0.36-9.58,1.23c-2.69,0.4-6.1,0.91-10.45,1.54
					l-0.96,0.14l0.11,0.96c0,0.03,0.03,0.17,0.08,0.39c1.22,5.38,1.5,9.87,1.52,12.68c0.05,5.26-0.75,9.73-2.38,13.31
					c-0.73,1.66-1.69,3.16-2.84,4.45c-1.37,1.57-3.01,2.83-4.87,3.74c-0.84,0.42-1.78,0.8-2.77,1.11c-1.08,0.33-2.28,0.52-3.55,0.56
					l-0.1,0.01l-0.01,0c-0.25,0.01-0.49,0.02-0.75,0.02c-0.82,0-1.69-0.06-2.59-0.18l-0.18-0.02l0,0c-4.26-0.58-8.74-2.4-11.72-4.75
					c-5.14-4.13-6.31-10.83-7.22-18.51c-0.14-1.16-0.47-3.89-2.67-3.89c-0.54,0-1.06,0.17-1.61,0.34c-0.42,0.13-0.85,0.27-1.29,0.33
					c-0.45-0.95-0.66-2.29-1.02-4.61c-0.09-0.6-0.2-1.26-0.31-1.99c-0.04-0.23-0.02-0.4,0.03-0.47c0.27-0.33,1.63-0.34,2.43-0.35
					l0.18,0c0.21-0.01,0.41-0.01,0.6-0.01c0.32,0,0.78-0.05,1.7-0.19l0.03,0c1.25-0.17,3.01-0.44,4.96-0.77
					c0.82-0.14,1.71-0.29,2.65-0.44c1.14-0.19,2.37-0.4,3.69-0.62c1.24-0.23,2.53-0.45,3.9-0.68l0.48-0.08
					c1.85-0.32,3.8-0.66,5.84-1.02c2.31-0.4,4.72-0.82,7.22-1.25c10.19-1.75,21-3.6,31.32-5.27c0.39-0.07,0.78-0.13,1.17-0.19
					c0.39-0.06,0.79-0.13,1.17-0.19c1.9-0.3,3.79-0.6,5.63-0.89c2.18-0.34,4.33-0.67,6.43-0.99c1.48-0.22,2.93-0.43,4.34-0.63
					c5.56-0.79,10.01-1.37,13.6-1.78C187.87,114.6,191.18,114.36,193.37,114.36 M193.37,113.36c-2.34,0-5.76,0.26-9.94,0.72
					c-3.94,0.45-8.58,1.06-13.63,1.78c-1.41,0.2-2.86,0.42-4.34,0.63c-2.1,0.32-4.25,0.65-6.43,0.99c-1.85,0.29-3.73,0.59-5.64,0.89
					c-0.79,0.14-1.57,0.25-2.36,0.39c-10.58,1.71-21.57,3.59-31.32,5.27c-4.71,0.81-9.13,1.59-13.06,2.27
					c-1.55,0.27-3,0.52-4.39,0.77c-2.39,0.4-4.52,0.76-6.33,1.06c-2.11,0.36-3.8,0.62-4.95,0.77l-0.02,0
					c-0.74,0.11-1.27,0.18-1.56,0.18c-0.2,0-0.4,0.01-0.62,0.01c-1.88,0.02-3.92-0.01-3.61,1.98c0.7,4.29,0.83,6.07,1.75,7.46
					c0.05,0,0.11,0,0.16,0c1.32,0,2.44-0.7,3.3-0.7c0.81,0,1.39,0.62,1.68,3.01c0.83,7.03,1.94,14.63,7.59,19.17
					c3.14,2.47,7.81,4.39,12.38,4.98l0.02,0c0.91,0.12,1.83,0.19,2.72,0.19c0.29,0,0.58-0.01,0.87-0.02l0.02,0
					c1.33-0.04,2.62-0.24,3.8-0.6c1.06-0.33,2.04-0.73,2.93-1.17c2.1-1.03,3.8-2.4,5.18-3.97c1.25-1.41,2.24-3,3-4.71
					c1.96-4.29,2.51-9.24,2.47-13.72c-0.04-7.07-1.58-12.96-1.6-13.18c13.44-1.95,17.97-2.76,19.88-2.76c0.91,0,1.22,0.19,1.62,0.53
					c1.76,1.49,1.52,14.52,15.15,23.1c1.39,0.87,2.76,1.57,4.09,2.07c1.51,0.59,2.98,0.96,4.4,1.13c0.63,0.08,1.26,0.11,1.87,0.11
					c1.99,0,3.86-0.39,5.58-1.12c2.02-0.83,3.82-2.11,5.35-3.74c1.24-1.28,2.32-2.8,3.19-4.47c0.86-1.66,1.54-3.46,2-5.37
					c0.93-3.4,0.66-6.37,0.13-8.78c-0.89-4.31-2.51-6.84,0.8-6.84c0.38,0,0.82,0.03,1.33,0.1c0.11,0.02,0.22,0.02,0.32,0.02
					c2.56,0-0.01-5.07-0.26-7.7C196.82,113.6,195.57,113.36,193.37,113.36L193.37,113.36z"/>
			</g>
			<path class="st11" d="M169.8,115.86c6.66,8.88,15.15,18.2,22.76,26.8c0.86-1.66,1.54-3.46,2-5.37c0.93-3.4,0.66-6.37,0.13-8.78
				c-3.41-4.69-7.65-10.01-11.26-14.44C179.48,114.53,174.85,115.15,169.8,115.86z"/>
			<path class="st12" d="M159.02,117.49c6.19,7.94,17.25,23.05,24.99,33.39c2.02-0.83,3.82-2.11,5.35-3.74
				c-6.35-9.61-16.71-21.96-23.91-30.64C163.36,116.82,161.21,117.15,159.02,117.49z"/>
			<path class="st11" d="M151.03,118.76c0.94,4.34,5.24,9.34,18.88,28.16c0.55,0.76,1.34,2.22,2.26,3.82
				c1.51,0.59,2.98,0.96,4.4,1.13c-3.74-6.86-11.1-17.05-23.18-33.51C152.6,118.51,151.82,118.63,151.03,118.76z"/>
			<path class="st11" d="M106.65,126.3c6.79,9.36,15.85,19.28,23.93,28.41c1.96-4.29,2.51-9.24,2.47-13.72
				c-4.03-5.56-9.29-12.1-13.33-16.96C115,124.85,110.58,125.62,106.65,126.3z"/>
			<path class="st12" d="M95.93,128.13c5.97,7.47,18.19,24.23,26.47,35.26c2.1-1.03,3.8-2.4,5.18-3.97
				c-6.74-10.21-18.08-23.6-25.32-32.35C99.87,127.47,97.74,127.83,95.93,128.13z"/>
			<path class="st11" d="M88.78,129.1c0.7,4.49,4.76,9.09,18.98,28.72c0.95,1.3,2.58,4.63,4.28,7.19l0.02,0
				c1.21,0.16,2.44,0.23,3.59,0.17c-3.26-6.9-10.93-17.58-24.67-36.27l-0.02,0c-0.74,0.11-1.27,0.18-1.56,0.18
				C89.2,129.09,89,129.09,88.78,129.1z"/>
			<path class="st13" d="M99.65,160.02c-5.64-4.53-6.74-12.13-7.58-19.16c-0.6-5.05-2.51-2.2-5.14-2.33
				c-0.93-1.39-1.06-3.17-1.76-7.46c-0.36-2.19,2.21-1.91,4.22-1.99c5.74-0.23,107.03-19.75,107.48-14.97
				c0.25,2.73,3.01,8.09-0.06,7.69c-7.55-1,0.53,5.39-2.26,15.5c-2.8,11.63-13.58,19.48-26.46,11.38
				c-13.64-8.58-13.4-21.6-15.15-23.1c-1.22-1.04-1.61-0.64-21.49,2.24c0.04,0.51,8.06,30.57-11.97,36.75
				C113.43,166.42,104.6,163.93,99.65,160.02z"/>
		</g>
	</g>
	<g>
		<path class="st4" d="M199.37,108.06c-1.86-1.56-4.23-1.94-6.44-2.57c-4.02-1.14,4.1-1.53,5.22-6.94c0.51-2.44-0.12-6.67,0.52-7.38
			c0.85-0.95,0.77,2.46,3.79,5.86c4.47,5.02,9.81,2.7,8.7,4.21c-1.69,2.3-5.06,1.68-6.46,7.09c-1.14,4.4,0.18,5.41-1.06,5.37
			C202.2,113.65,201.39,109.76,199.37,108.06z"/>
		<path class="st4" d="M207.68,83.77c-1.86-1.56-4.23-1.94-6.44-2.57c-4.02-1.14,4.1-1.53,5.22-6.94c0.51-2.44-0.12-6.67,0.52-7.38
			c0.85-0.95,0.77,2.46,3.79,5.86c4.47,5.02,9.81,2.7,8.7,4.21c-1.69,2.3-5.06,1.68-6.46,7.09c-1.14,4.4,0.18,5.41-1.06,5.37
			C210.52,89.36,209.71,85.46,207.68,83.77z"/>
		<path class="st4" d="M213.08,126.26c-1.86-1.56-4.23-1.94-6.44-2.57c-4.02-1.14,4.1-1.53,5.22-6.94c0.51-2.44-0.12-6.67,0.52-7.38
			c0.85-0.95,0.77,2.46,3.79,5.86c4.47,5.02,9.81,2.7,8.7,4.21c-1.69,2.3-5.06,1.68-6.46,7.09c-1.14,4.4,0.18,5.41-1.06,5.37
			C215.91,131.86,215.1,127.96,213.08,126.26z"/>
	</g>
	<g>
		<path class="st14" d="M76.01,163.43c-2.19-16.23,4.59-25.04,4.8-23.12c0.79,7.01-0.72,13.76,0.79,20.92
			c1.61,7.63,5.36,14.22,8.16,21.4C92.17,188.83,78.75,183.8,76.01,163.43z"/>
		<g class="st15">
			<path class="st6" d="M135.71,146.76C135.68,146.76,135.67,146.75,135.71,146.76L135.71,146.76z"/>
		</g>
		<path class="st14" d="M144.41,133.88c3.12-0.36,3.28,1.66,0.43,2.21C143.25,136.4,143.08,134.04,144.41,133.88z"/>
		<path class="st14" d="M186.79,151.01c0.79-7.49-0.49-16.05-3.93-22.79c-0.32-0.62,0.54-1.19,1.01-0.68
			c14.43,16.08,11.63,38.89,2.36,43.49C178.47,174.88,186.34,155.24,186.79,151.01z"/>
		<path class="st14" d="M163.26,114.73c3.1-1.15,5.62-0.14,6.75,1.46C171.12,117.76,160.28,115.83,163.26,114.73z"/>
		<path class="st14" d="M117.58,124.08c4.47-3.05,6.54-0.87,4.88,0.21c-2.74,1.79-2.8,3.36-4.71,2.4
			C116.91,126.27,116.78,124.62,117.58,124.08z"/>
	</g>
</g>
<g>
	<path d="M96.04,122.12L96.04,122.12L96.04,122.12z"/>
</g>
<g>
	<path class="st16" d="M180.1,162.13c-0.07,0.01-0.14,0.02-0.21,0.01l-10.44-1.15c-0.39-0.04-0.66-0.39-0.62-0.77
		c0.04-0.38,0.39-0.66,0.77-0.62l10.44,1.15c0.39,0.04,0.66,0.39,0.62,0.77C180.62,161.83,180.39,162.07,180.1,162.13z"/>
	<g transform="matrix(1,0,0,1,-0.702538,3.54886)">
		<path class="st16" d="M179.1,163.56c-0.07,0.01-0.14,0.02-0.22,0.01l-8.74-1.06c-0.38-0.05-0.66-0.4-0.61-0.78
			c0.05-0.38,0.4-0.66,0.78-0.61l8.74,1.06c0.38,0.05,0.66,0.4,0.61,0.78C179.62,163.27,179.39,163.51,179.1,163.56z"/>
	</g>
</g>
<g transform="matrix(-1,0,0,1,165.723,0.195854)">
	<path class="st16" d="M48.07,174.51c0.29,0.06,0.6-0.08,0.75-0.35c0.19-0.34,0.06-0.77-0.28-0.95l-9.22-5.02
		c-0.34-0.18-0.77-0.06-0.95,0.28c-0.19,0.34-0.06,0.77,0.28,0.95l9.22,5.02C47.94,174.47,48,174.49,48.07,174.51z"/>
	<g transform="matrix(1,0,0,1,-0.702538,3.54886)">
		<path class="st16" d="M45.31,174.93c0.29,0.06,0.6-0.07,0.75-0.35c0.19-0.34,0.07-0.77-0.27-0.95l-7.69-4.3
			c-0.34-0.19-0.77-0.07-0.95,0.27c-0.19,0.34-0.07,0.77,0.27,0.95l7.69,4.3C45.17,174.89,45.24,174.91,45.31,174.93z"/>
	</g>
</g>
<g>
	<g>
		<path d="M104.24,142.65L104.24,142.65L104.24,142.65z"/>
	</g>
</g>
<g>
	<g>
		<path class="st3" d="M147.68,152.26c0,0-10.25-4.45-8.85-9.11c1.38-4.61,15.64-6.66,16.64-0.78
			C156.15,146.42,147.68,152.26,147.68,152.26z"/>
		<path d="M147.86,153.17c-0.16,0.03-0.33,0.01-0.48-0.05c-1.13-0.49-10.97-4.93-9.37-10.27c1.02-3.41,7.29-5.42,12.21-4.94
			c3.47,0.34,5.69,1.91,6.09,4.33c0.76,4.51-7.24,10.17-8.15,10.81C148.07,153.1,147.97,153.15,147.86,153.17z M145.71,139.99
			c-3,0.59-5.6,1.95-6.06,3.46c-0.89,2.97,5.19,6.51,7.93,7.78c3.09-2.21,7.46-6.3,7.05-8.71c-0.36-2.14-3.28-2.65-4.51-2.77
			C148.68,139.6,147.15,139.71,145.71,139.99z"/>
	</g>
	<g transform="matrix(1,0,0,1,-0.0137831,1.77852)">
		<g>
			<defs>
				<path id="SVGID_1_" d="M134.48,181.17c0,0,3.82-28.21,13.05-30.88c9.24-2.67,20.08,25.56,20.08,25.56
					C167.98,173.39,145.62,174.36,134.48,181.17z"/>
			</defs>
			<use xlink:href="#SVGID_1_"  style="overflow:visible;fill-rule:evenodd;clip-rule:evenodd;fill:#C60A01;"/>
			<clipPath id="SVGID_00000111188119145265155720000013070525635217770653_">
				<use xlink:href="#SVGID_1_"  style="overflow:visible;"/>
			</clipPath>
			<g style="clip-path:url(#SVGID_00000111188119145265155720000013070525635217770653_);">
				<g transform="matrix(1,0,0,1,0.0137831,-1.77852)">
					<g>
						<path class="st18" d="M129.41,184.17c0,0,7.2-12.61,19.41-15.1c12.22-2.49,21.87,5.62,24.24,11.27
							C159.34,184.27,145.61,188.23,129.41,184.17z"/>
						<path d="M157.39,185.3c-8.79,1.73-18.02,2.31-28.15-0.24c-0.27-0.07-0.5-0.27-0.61-0.55c-0.11-0.28-0.09-0.59,0.05-0.84
							c0.3-0.53,7.53-12.98,19.97-15.51c12.16-2.48,22.45,5.27,25.21,11.81c0.1,0.24,0.1,0.52,0,0.76c-0.1,0.24-0.3,0.42-0.54,0.48
							l-0.12,0.03C168.03,182.73,162.79,184.24,157.39,185.3z M130.84,183.57c15.06,3.41,28.24-0.19,40.98-3.84
							c-2.74-4.97-11.28-12.04-22.65-9.8c-0.05,0.01-0.1,0.02-0.16,0.03C139.4,171.93,132.89,180.51,130.84,183.57z"/>
					</g>
				</g>
			</g>
		</g>
		<path class="st19" d="M150,150.23c-0.33-0.14-0.65-0.32-0.96-0.49c-0.43,0.25-0.91,0.45-1.44,0.61l0.09,11.17l4.45,0.19
			l-0.08-10.5c-0.43-0.2-0.84-0.44-1.23-0.71C150.55,150.43,150.27,150.35,150,150.23z"/>
		<path class="st19" d="M145.47,150.55c-0.07,0.11-0.15,0.23-0.22,0.34c-0.8,1.36-1.76,2.7-2.88,3.82l0.05,6.73l4.45,0.19
			l-0.09-11.92C146.37,150.04,145.94,150.33,145.47,150.55z"/>
		<path d="M167.78,176.76c-0.03,0.01-0.05,0.01-0.08,0.01c-0.38,0.04-0.75-0.2-0.89-0.59c-0.02-0.04-0.03-0.08-0.05-0.13
			c-2.26-1.21-21.37-0.49-31.84,5.92c-0.29,0.17-0.64,0.15-0.92-0.05c-0.28-0.2-0.42-0.56-0.37-0.91
			c0.16-1.18,4.01-28.82,13.66-31.61c9.22-2.68,19.26,21.45,20.9,25.56c0.32,0.42,0.3,0.86,0.27,1.05
			C168.4,176.4,168.13,176.69,167.78,176.76z M149.28,175.05c6.72-1.32,13.29-1.67,16.64-1.07c-3.6-8.6-11.78-24.64-18.15-22.79
			c-6.63,1.92-10.78,19.63-12.17,28.31C139.46,177.49,144.41,176.01,149.28,175.05z"/>
	</g>
</g>
</svg>
